<svg width="500" height="500" viewBox="0 0 500 500" fill="none" xmlns="http://www.w3.org/2000/svg">
<path fill-rule="evenodd" clip-rule="evenodd" d="M8 5C6.34315 5 5 6.34315 5 8V53.1137V446.886V495C5 495 5.00012 495 5.00028 495H73.028L73.0283 495H149.887C151.544 495 152.887 493.657 152.887 492V449.886C152.887 448.229 151.544 446.886 149.887 446.886H76.0282C74.3713 446.886 73.0282 445.543 73.0282 443.886V56.1137C73.0282 54.4568 74.3713 53.1137 76.0282 53.1137H149.887C151.544 53.1137 152.887 51.7706 152.887 50.1137V8C152.887 6.34315 151.544 5 149.887 5H73.0282H8ZM312.606 8V50.1137C312.606 51.7705 313.949 53.1137 315.606 53.1137H320.02C337.073 53.1137 369.697 56.2791 373.404 87.2997V182.261C373.157 190.28 375.332 210.116 386.008 225.31C389.255 230.116 397.963 240.393 409.242 247.295C411.291 248.548 411.406 251.65 409.383 252.947C399.931 259.008 387.057 268.714 386.069 275.186C385.992 275.688 385.879 276.185 385.643 276.634C381.339 284.809 373.404 306.497 373.404 333.566V412.067C373.651 423.251 363.617 445.873 321.503 446.886H315.606C313.949 446.886 312.606 448.229 312.606 449.886V492C312.606 493.657 313.949 495 315.606 495H327.434C336.332 494.789 357.982 493.481 373.404 489.935C389.715 486.348 424.563 472.716 433.46 446.886C435.685 442.244 440.43 428.78 441.616 412.067V313.598C441.616 313.405 441.633 313.219 441.672 313.03C443.502 304.098 451.496 285.103 469.464 277.983C469.609 277.926 469.75 277.856 469.89 277.786C469.958 277.753 470.026 277.719 470.095 277.686C471.808 276.879 477.99 275.658 491.911 275.885C493.602 275.913 495 274.558 495 272.866V228.419C495 226.72 493.593 225.361 491.895 225.37C485.246 225.406 474.836 224.932 469.791 222.778C462.407 220.676 446.493 210.58 441.676 186.986C441.636 186.793 441.616 186.593 441.616 186.396V87.2997C441.132 78.8217 438.749 60.4557 433.073 53.5257C432.843 53.2456 432.657 52.9519 432.521 52.6165C427.288 39.7759 408.533 14.064 373.404 10.0646C366.978 8.79845 350.716 6.01292 337.073 5H315.606C313.949 5 312.606 6.34315 312.606 8Z" fill="#EA5455"/>
<path d="M73.028 495V497.5H74.0636L74.7958 496.768L73.028 495ZM73.0283 495V492.5H71.9928L71.2605 493.232L73.0283 495ZM373.404 87.2997H375.904V87.1509L375.886 87.0031L373.404 87.2997ZM373.404 182.261L375.903 182.338L375.904 182.299V182.261H373.404ZM386.008 225.31L388.08 223.91L388.067 223.891L388.054 223.873L386.008 225.31ZM409.242 247.295L410.547 245.162L409.242 247.295ZM409.383 252.947L410.733 255.051H410.733L409.383 252.947ZM386.069 275.186L388.54 275.563V275.563L386.069 275.186ZM385.643 276.634L387.855 277.799L387.855 277.799L385.643 276.634ZM373.404 412.067H370.904V412.095L370.904 412.122L373.404 412.067ZM321.503 446.886V449.386H321.533L321.563 449.386L321.503 446.886ZM327.434 495V497.5H327.464L327.494 497.499L327.434 495ZM373.404 489.935L372.867 487.494L372.855 487.496L372.844 487.499L373.404 489.935ZM433.46 446.886L431.206 445.806L431.144 445.936L431.097 446.072L433.46 446.886ZM441.616 412.067L444.11 412.244L444.116 412.156V412.067H441.616ZM441.672 313.03L439.223 312.528L439.223 312.529L441.672 313.03ZM469.464 277.983L468.544 275.659L468.544 275.659L469.464 277.983ZM469.89 277.786L468.779 275.547L468.779 275.547L469.89 277.786ZM470.095 277.686L471.161 279.948L471.161 279.948L470.095 277.686ZM491.911 275.885L491.87 278.385L491.911 275.885ZM491.895 225.37L491.908 227.87L491.895 225.37ZM469.791 222.778L470.773 220.479L470.627 220.417L470.475 220.373L469.791 222.778ZM441.676 186.986L439.226 187.487V187.487L441.676 186.986ZM441.616 87.2997H444.116V87.2284L444.112 87.1572L441.616 87.2997ZM433.073 53.5257L435.007 51.9415V51.9415L433.073 53.5257ZM432.521 52.6165L430.205 53.5599L430.206 53.56L432.521 52.6165ZM373.404 10.0646L372.92 12.5174L373.02 12.5371L373.121 12.5486L373.404 10.0646ZM337.073 5L337.258 2.50686L337.166 2.5H337.073V5ZM7.5 8C7.5 7.72386 7.72386 7.5 8 7.5V2.5C4.96243 2.5 2.5 4.96244 2.5 8H7.5ZM7.5 53.1137V8H2.5V53.1137H7.5ZM7.5 446.886V53.1137H2.5V446.886H7.5ZM7.5 495V446.886H2.5V495H7.5ZM5.00028 492.5C6.36284 492.5 7.5 493.601 7.5 495H2.5C2.5 496.398 3.6374 497.5 5.00028 497.5V492.5ZM73.028 492.5H5.00028V497.5H73.028V492.5ZM71.2605 493.232L71.2603 493.232L74.7958 496.768L74.7961 496.767L71.2605 493.232ZM149.887 492.5H73.0283V497.5H149.887V492.5ZM150.387 492C150.387 492.276 150.163 492.5 149.887 492.5V497.5C152.925 497.5 155.387 495.037 155.387 492H150.387ZM150.387 449.886V492H155.387V449.886H150.387ZM149.887 449.386C150.163 449.386 150.387 449.61 150.387 449.886H155.387C155.387 446.848 152.925 444.386 149.887 444.386V449.386ZM76.0282 449.386H149.887V444.386H76.0282V449.386ZM70.5282 443.886C70.5282 446.924 72.9906 449.386 76.0282 449.386V444.386C75.752 444.386 75.5282 444.162 75.5282 443.886H70.5282ZM70.5282 56.1137V443.886H75.5282V56.1137H70.5282ZM76.0282 50.6137C72.9906 50.6137 70.5282 53.0761 70.5282 56.1137H75.5282C75.5282 55.8376 75.752 55.6137 76.0282 55.6137V50.6137ZM149.887 50.6137H76.0282V55.6137H149.887V50.6137ZM150.387 50.1137C150.387 50.3898 150.163 50.6137 149.887 50.6137V55.6137C152.925 55.6137 155.387 53.1513 155.387 50.1137H150.387ZM150.387 8V50.1137H155.387V8H150.387ZM149.887 7.5C150.163 7.5 150.387 7.72385 150.387 8H155.387C155.387 4.96244 152.925 2.5 149.887 2.5V7.5ZM73.0282 7.5H149.887V2.5H73.0282V7.5ZM8 7.5H73.0282V2.5H8V7.5ZM315.106 50.1137V8H310.106V50.1137H315.106ZM315.606 50.6137C315.329 50.6137 315.106 50.3898 315.106 50.1137H310.106C310.106 53.1512 312.568 55.6137 315.606 55.6137V50.6137ZM320.02 50.6137H315.606V55.6137H320.02V50.6137ZM375.886 87.0031C373.905 70.4276 364.094 61.2238 352.712 56.2809C341.478 51.402 328.638 50.6137 320.02 50.6137V55.6137C328.456 55.6137 340.453 56.4081 350.721 60.8671C360.841 65.262 369.195 73.1512 370.921 87.5964L375.886 87.0031ZM375.904 182.261V87.2997H370.904V182.261H375.904ZM388.054 223.873C377.798 209.278 375.665 190.046 375.903 182.338L370.905 182.184C370.648 190.514 372.865 210.954 383.963 226.747L388.054 223.873ZM410.547 245.162C399.648 238.493 391.183 228.503 388.08 223.91L383.937 226.71C387.328 231.729 396.278 242.293 407.937 249.427L410.547 245.162ZM410.733 255.051C414.407 252.696 414.068 247.317 410.547 245.162L407.937 249.427C408.166 249.567 408.33 249.836 408.34 250.178C408.35 250.512 408.213 250.728 408.034 250.842L410.733 255.051ZM388.54 275.563C388.691 274.578 389.368 273.168 390.771 271.37C392.134 269.622 394.008 267.727 396.206 265.786C400.599 261.909 406.064 258.045 410.733 255.051L408.034 250.842C403.25 253.91 397.552 257.929 392.898 262.038C390.572 264.091 388.452 266.214 386.828 268.295C385.243 270.327 383.941 272.557 383.598 274.808L388.54 275.563ZM387.855 277.799C388.285 276.981 388.449 276.158 388.54 275.563L383.598 274.808C383.535 275.217 383.473 275.389 383.43 275.47L387.855 277.799ZM375.904 333.566C375.904 306.933 383.726 285.642 387.855 277.799L383.43 275.47C378.952 283.976 370.904 306.062 370.904 333.566H375.904ZM375.904 412.067V333.566H370.904V412.067H375.904ZM321.563 449.386C343.062 448.868 356.741 442.82 365.039 435.124C373.309 427.454 376.042 418.314 375.903 412.012L370.904 412.122C371.012 417.005 368.852 424.768 361.639 431.458C354.453 438.122 342.058 443.891 321.443 444.387L321.563 449.386ZM315.606 449.386H321.503V444.386H315.606V449.386ZM315.106 449.886C315.106 449.61 315.329 449.386 315.606 449.386V444.386C312.568 444.386 310.106 446.849 310.106 449.886H315.106ZM315.106 492V449.886H310.106V492H315.106ZM315.606 492.5C315.329 492.5 315.106 492.276 315.106 492H310.106C310.106 495.038 312.568 497.5 315.606 497.5V492.5ZM327.434 492.5H315.606V497.5H327.434V492.5ZM372.844 487.499C357.672 490.987 336.223 492.291 327.375 492.501L327.494 497.499C336.441 497.287 358.292 495.975 373.964 492.372L372.844 487.499ZM431.097 446.072C426.926 458.181 416.57 467.654 404.931 474.605C393.33 481.534 380.798 485.749 372.867 487.494L373.941 492.377C382.321 490.534 395.369 486.14 407.494 478.898C419.581 471.679 431.098 461.421 435.824 447.701L431.097 446.072ZM439.123 411.89C437.959 428.282 433.298 441.44 431.206 445.806L435.715 447.967C438.072 443.048 442.901 429.278 444.11 412.244L439.123 411.89ZM439.116 313.598V412.067H444.116V313.598H439.116ZM439.223 312.529C439.147 312.9 439.116 313.255 439.116 313.598H444.116C444.116 313.574 444.117 313.559 444.118 313.551C444.119 313.543 444.12 313.538 444.121 313.532L439.223 312.529ZM468.544 275.659C458.956 279.458 452.1 286.397 447.432 293.447C442.772 300.483 440.199 307.767 439.223 312.528L444.121 313.532C444.976 309.362 447.314 302.681 451.601 296.207C455.879 289.746 462.005 283.628 470.385 280.307L468.544 275.659ZM468.779 275.547C468.623 275.624 468.576 275.646 468.544 275.659L470.385 280.307C470.643 280.205 470.876 280.088 471.001 280.026L468.779 275.547ZM469.029 275.425C468.934 275.47 468.844 275.515 468.779 275.547L471.001 280.026C471.073 279.99 471.119 279.968 471.161 279.948L469.029 275.425ZM491.952 273.385C484.918 273.27 479.785 273.52 476.156 273.912C472.622 274.293 470.289 274.831 469.028 275.425L471.161 279.948C471.613 279.734 473.227 279.257 476.693 278.883C480.064 278.519 484.982 278.272 491.87 278.385L491.952 273.385ZM492.5 272.866C492.5 273.139 492.269 273.39 491.952 273.385L491.87 278.385C494.936 278.435 497.5 275.977 497.5 272.866H492.5ZM492.5 228.419V272.866H497.5V228.419H492.5ZM491.908 227.87C492.263 227.868 492.5 228.148 492.5 228.419H497.5C497.5 225.292 494.923 222.854 491.881 222.87L491.908 227.87ZM468.809 225.077C471.715 226.317 475.913 226.998 480.007 227.384C484.177 227.778 488.529 227.888 491.908 227.87L491.881 222.87C488.613 222.888 484.435 222.78 480.477 222.406C476.442 222.026 472.913 221.392 470.773 220.479L468.809 225.077ZM439.226 187.487C444.244 212.06 460.891 222.844 469.107 225.182L470.475 220.373C463.924 218.509 448.743 209.1 444.125 186.486L439.226 187.487ZM439.116 186.396C439.116 186.759 439.153 187.126 439.226 187.487L444.125 186.486C444.12 186.461 444.116 186.428 444.116 186.396H439.116ZM439.116 87.2997V186.396H444.116V87.2997H439.116ZM431.139 55.1099C432.301 56.5289 433.398 58.6767 434.385 61.389C435.361 64.0713 436.177 67.1592 436.845 70.345C438.181 76.7196 438.884 83.3045 439.12 87.4423L444.112 87.1572C443.864 82.817 443.134 75.9798 441.738 69.3194C441.04 65.9877 440.166 62.6548 439.084 59.6795C438.012 56.7342 436.683 53.9875 435.007 51.9415L431.139 55.1099ZM430.206 53.56C430.453 54.1674 430.781 54.6737 431.139 55.1099L435.007 51.9415C434.905 51.8175 434.862 51.7363 434.836 51.673L430.206 53.56ZM373.121 12.5486C407.085 16.4152 425.208 41.2953 430.205 53.5599L434.836 51.6731C429.369 38.2565 409.982 11.7127 373.687 7.58064L373.121 12.5486ZM336.888 7.49314C350.39 8.49559 366.543 11.2607 372.92 12.5174L373.887 7.61176C367.413 6.33616 351.042 3.53024 337.258 2.50686L336.888 7.49314ZM315.606 7.5H337.073V2.5H315.606V7.5ZM315.106 8C315.106 7.72385 315.329 7.5 315.606 7.5V2.5C312.568 2.5 310.106 4.96244 310.106 8H315.106Z" fill="#D6333E"/>
</svg>
